<svg xmlns="http://www.w3.org/2000/svg" width="50" height="36.44"><g data-name="Group 3173"><g data-name="Component 7" fill="none"><g data-name="Path 1603"><path d="M25 5.854c13.807 0 25 12.243 25 12.243S38.807 30.34 25 30.34 0 18.097 0 18.097 11.193 5.854 25 5.854z"/><path d="M25 7.854c-2.887 0-5.902.592-8.962 1.76-2.494.952-5.021 2.285-7.514 3.963a46.481 46.481 0 00-5.682 4.52C6.116 21.154 14.89 28.34 25 28.34c2.887 0 5.902-.592 8.962-1.76 2.493-.951 5.021-2.285 7.514-3.963a46.481 46.481 0 005.682-4.52C43.884 15.041 35.11 7.854 25 7.854m0-2c13.807 0 25 12.243 25 12.243S38.807 30.34 25 30.34 0 18.097 0 18.097 11.193 5.854 25 5.854z" fill="#103853"/></g><g data-name="Ellipse 6" transform="translate(19 12.098)" stroke="#103853" stroke-width="2"><circle cx="6" cy="6" r="6" stroke="none"/><circle cx="6" cy="6" r="5"/></g><path data-name="Path 1604" d="M6.406 35.734L41.432.708" stroke="#103853" stroke-width="2"/></g></g></svg>