<svg data-name="Group 3120" xmlns="http://www.w3.org/2000/svg" width="15.39" height="21.333"><path data-name="Path 2147" d="M7.662 21.333l-.206-.254C7.156 20.704 0 11.844 0 7.695a7.695 7.695 0 0115.39 0c0 4.15-7.214 13.01-7.521 13.385zm.033-20.8A7.17 7.17 0 00.534 7.694c0 3.583 5.938 11.281 7.13 12.789 1.2-1.506 7.193-9.207 7.193-12.789A7.17 7.17 0 007.695.533zm0 10.933a3.772 3.772 0 113.772-3.772 3.776 3.776 0 01-3.772 3.773zm0-7.01a3.238 3.238 0 103.238 3.238 3.242 3.242 0 00-3.238-3.237z" fill="#fff"/></svg>