<svg data-name="Group 3119" xmlns="http://www.w3.org/2000/svg" width="21.43" height="21.461"><path data-name="Path 2144" d="M16.921 13.451a1.978 1.978 0 00-1.434-.661 2.055 2.055 0 00-1.454.659l-1.542 1.538-.11-.059-.229-.12-.123-.063a5.918 5.918 0 01-.467-.25 15.972 15.972 0 01-3.828-3.487 9.436 9.436 0 01-1.265-2l-.05-.111.09-.082c.338-.309.655-.631.962-.942l.1-.1.2-.2.192-.194a1.952 1.952 0 000-2.946L6.707 3.177c-.136-.136-.29-.29-.432-.441a21.49 21.49 0 00-.856-.847 2.016 2.016 0 00-1.427-.632 2.084 2.084 0 00-1.448.629l-.007.007L.973 3.47a3.206 3.206 0 00-.95 2.036 7.91 7.91 0 00.579 3.34 19.658 19.658 0 003.491 5.821 21.482 21.482 0 007.153 5.6 11.13 11.13 0 003.986 1.18c.091 0 .19.009.279.009a3.307 3.307 0 002.522-1.077l.013-.016.008-.01a9.694 9.694 0 01.754-.784l.064-.062c.237-.226.425-.412.594-.589a2.129 2.129 0 00.648-1.476 2.045 2.045 0 00-.658-1.458zm1.891 4.843c-.15.162-.3.309-.463.466l-.1.1a12.033 12.033 0 00-.877.908 2.382 2.382 0 01-1.858.791c-.073 0-.15 0-.223-.005a10.124 10.124 0 01-3.65-1.093 20.6 20.6 0 01-6.847-5.362 18.869 18.869 0 01-3.341-5.566 6.707 6.707 0 01-.525-2.952 2.277 2.277 0 01.684-1.472L3.181 2.54a1.217 1.217 0 01.818-.376 1.13 1.13 0 01.791.371l.014.014c.267.249.525.51.83.825l.218.222.219.224 1.254 1.254a1.041 1.041 0 010 1.664l-.13.131c-.089.09-.177.18-.268.267-.409.419-.765.773-1.156 1.124l-.019.019a.769.769 0 00-.2.875l.011.033a9.923 9.923 0 001.455 2.372l.008.01a16.708 16.708 0 004.045 3.681 6.137 6.137 0 00.551.3c.167.083.325.162.464.248l.033.02.014.008a.827.827 0 00.38.1.813.813 0 00.58-.268l1.573-1.573a1.2 1.2 0 01.814-.394 1.109 1.109 0 01.787.391l2.535 2.535a1.078 1.078 0 01.01 1.678z" fill="#fff"/><path data-name="Path 2145" d="M11.623 4.85a6.088 6.088 0 014.96 4.959.449.449 0 00.446.375.578.578 0 00.073-.006h.011a.441.441 0 00.287-.182.46.46 0 00.078-.342 6.991 6.991 0 00-5.7-5.695.46.46 0 00-.076-.006.456.456 0 00-.372.719.435.435 0 00.293.178z" fill="#fff"/><path data-name="Path 2146" d="M21.423 9.475A11.621 11.621 0 0011.954.007.441.441 0 0011.877 0a.452.452 0 00-.068.9 10.7 10.7 0 018.721 8.722.45.45 0 00.446.375.567.567 0 00.074-.007h.013a.431.431 0 00.285-.177.438.438 0 00.077-.335z" fill="#fff"/></svg>