<svg data-name="Group 3118" xmlns="http://www.w3.org/2000/svg" width="19.164" height="13.624"><g data-name="Group 3117" fill="#fff"><path data-name="Path 2140" d="M15.512 10.522a.306.306 0 01-.211-.084l-3.556-3.336a.309.309 0 01.423-.45l3.556 3.336a.309.309 0 01-.212.534z"/><path data-name="Path 2141" d="M3.647 10.522a.309.309 0 01-.212-.534l3.557-3.336a.309.309 0 01.423.45l-3.557 3.336a.306.306 0 01-.211.084z"/></g><path data-name="Path 2142" d="M17.619 13.624H1.545A1.547 1.547 0 010 12.079V1.545A1.547 1.547 0 011.545 0h16.074a1.547 1.547 0 011.545 1.545v10.534a1.547 1.547 0 01-1.545 1.545zM1.545.618a.928.928 0 00-.927.927v10.534a.928.928 0 00.927.927h16.074a.928.928 0 00.927-.927V1.545a.928.928 0 00-.927-.927z" fill="#fff"/><path data-name="Path 2143" d="M9.582 8.363a1.729 1.729 0 01-1.135-.409L.513 1.032A.309.309 0 11.919.566l7.934 6.921a1.157 1.157 0 001.457 0l7.924-6.91a.31.31 0 11.407.466l-7.925 6.91a1.727 1.727 0 01-1.134.41z" fill="#fff"/></svg>