<svg xmlns="http://www.w3.org/2000/svg" viewBox="0 0 138.1 27.42"><defs><linearGradient id="linear-gradient" x1="10.35" y1="27.48" x2="10.35" y2=".14" gradientUnits="userSpaceOnUse"><stop offset="0" stop-color="#8bc53f"/><stop offset=".05" stop-color="#7ec241"/><stop offset=".17" stop-color="#61bc45"/><stop offset=".28" stop-color="#4cb848"/><stop offset=".4" stop-color="#40b549"/><stop offset=".52" stop-color="#3cb44a"/><stop offset=".91" stop-color="#39b34a"/><stop offset="1" stop-color="#37b34a"/></linearGradient><style>.cls-2{fill:url(#linear-gradient)}</style></defs><g id="Layer_2" data-name="Layer 2"><g id="Layer_1-2" data-name="Layer 1"><path d="M49.8 17.59V26h-2v-8.32c0-2.79-1.67-4.53-4.06-4.53-2.72 0-4.71 2-4.49 5.49v-.13V26h-2v-8.32c0-2.82-1.67-4.53-4-4.53s-4.48 1.37-4.54 4.85v8h-2V11.54h2v2.61a5.1 5.1 0 014.95-2.92 5.15 5.15 0 015.08 3.47 5.3 5.3 0 015.33-3.47c3.5 0 5.73 2.36 5.73 6.36zm3.01-11.37a1.53 1.53 0 013.06 0 1.54 1.54 0 01-3.06 0zm.52 5.32h2V26h-2zm18.59 6.05V26h-2v-8.32c0-2.79-1.77-4.49-4.09-4.49A4.53 4.53 0 0061 18v8h-2V11.54h2v2.61c.86-2.08 3.22-2.92 5-2.92 3.54 0 5.92 2.36 5.92 6.36zm9.76-4.34h-3.32V26h-2V13.25h-2.58v-1.71h2.63V5.78h2v5.76h3.32zm2.2 2.14a10.78 10.78 0 1121.56 0 10.78 10.78 0 11-21.56 0zm19.51 0a8.74 8.74 0 10-17.47 0 8.74 8.74 0 1017.47 0zm19.02-3.85V26h-2v-2.81a6.46 6.46 0 01-5.76 3.13 7.33 7.33 0 01-7.34-7.56 7.28 7.28 0 017.34-7.53 6.47 6.47 0 015.76 3.1v-2.79zm-2 7.28a5.56 5.56 0 10-5.61 5.61 5.51 5.51 0 005.63-5.61zM134.8 26l-7.31-7.43V26h-2V3.4h2v13.69l5.42-5.55h2.76l-6.19 6.29 8 8.18z" fill="#80c242" stroke="#80c243" stroke-miterlimit="10" stroke-width=".5"/><path class="cls-2" d="M9.32 2c0 .06 0 0 .59.72s0 4.62 0 4.62a1.27 1.27 0 00.44.16 1.35 1.35 0 00.45-.16s-.43-4.18 0-4.62a3.14 3.14 0 00.57-.7 1.25 1.25 0 00.24-.73 1.26 1.26 0 00-2.51 0 1.22 1.22 0 00.22.71z"/><path class="cls-2" d="M18.85 13.55h-5.48a1.15 1.15 0 01-.81-.32l-.56-.57a1.2 1.2 0 01-.08-1.6c1.12-1.6 2.24.11 2.24.11a1.85 1.85 0 003.29-1.34 1.92 1.92 0 00-2-1.7 9.4 9.4 0 00-1.43.12 19.5 19.5 0 01-2.72-.35 4 4 0 002.35-2.11 1.19 1.19 0 00.72.23 1.25 1.25 0 10-1.26-1.25 1.22 1.22 0 00.11.5C13 6.45 11.81 7.19 10.4 7.64c-1.46-.44-2.67-1.18-3-2.4a1.16 1.16 0 00.1-.49 1.25 1.25 0 10-.53 1A4 4 0 009.41 7.9a16.41 16.41 0 01-2.62.35 10.24 10.24 0 00-1.6-.14 1.92 1.92 0 00-2 1.7 1.86 1.86 0 001.85 2 1.84 1.84 0 001.44-.69s1.07-1.71 2.24-.11a1.2 1.2 0 01-.07 1.6l-.57.57a1.17 1.17 0 01-.82.32H1.78a1.78 1.78 0 000 3.56h4.9a1.26 1.26 0 011.26 1.26c0 2.05-3.73 1.07-4.05 1.08a2.12 2.12 0 00-2 1.65 2.09 2.09 0 002.05 2.52c.49 0 4.16.17 5 1.61a.64.64 0 00-.48.62.66.66 0 00.66.66h.06a1.25 1.25 0 002.42 0h.08a.67.67 0 00.66-.66.64.64 0 00-.54-.63c.74-1.33 3.89-1.56 4.79-1.59h.19a2.09 2.09 0 000-4.17c-.46 0-3.93.93-3.92-1.09A1.27 1.27 0 0114 17.11h4.89a1.78 1.78 0 001.77-1.95 1.83 1.83 0 00-1.81-1.61zm-9.15 0c.2-.19.42-.42.64-.66.21.24.43.47.63.66zm1.65-4a5.24 5.24 0 00-.59.76c-.13.18-.28.36-.42.54-.15-.18-.29-.43-.42-.61a4.15 4.15 0 00-.59-.69 4.44 4.44 0 00-1.21-.85 14.13 14.13 0 002.24-.46 15.17 15.17 0 002.25.44 4.52 4.52 0 00-1.26.86z"/></g></g></svg>