<svg data-name="Group 3172" xmlns="http://www.w3.org/2000/svg" width="50" height="24.486"><g data-name="Path 1603" fill="none"><path d="M25 0c13.807 0 25 12.243 25 12.243S38.807 24.486 25 24.486 0 12.243 0 12.243 11.193 0 25 0z"/><path d="M25 2c-2.887 0-5.902.592-8.962 1.76-2.494.952-5.021 2.285-7.514 3.963a46.481 46.481 0 00-5.682 4.52C6.116 15.3 14.89 22.486 25 22.486c2.887 0 5.902-.592 8.962-1.76 2.493-.951 5.021-2.285 7.514-3.963a46.481 46.481 0 005.682-4.52C43.884 9.187 35.11 2 25 2m0-2c13.807 0 25 12.243 25 12.243S38.807 24.486 25 24.486 0 12.243 0 12.243 11.193 0 25 0z" fill="#113954"/></g><g data-name="Ellipse 6" transform="translate(19 6.243)" fill="none" stroke="#113954" stroke-width="2"><circle cx="6" cy="6" r="6" stroke="none"/><circle cx="6" cy="6" r="5"/></g></svg>