<svg xmlns="http://www.w3.org/2000/svg" viewBox="0 0 492.004 492.004" width="512" height="512"><path d="M226.804 109.326L7.86 328.274C2.792 333.338 0 340.098 0 347.306s2.792 13.968 7.86 19.032l16.12 16.124c10.504 10.492 27.576 10.492 38.064 0L245.9 198.606l184.06 184.06c5.068 5.064 11.824 7.86 19.028 7.86 7.212 0 13.968-2.796 19.04-7.86l16.116-16.124c5.068-5.068 7.86-11.824 7.86-19.032s-2.792-13.968-7.86-19.032L265 109.326c-5.084-5.076-11.872-7.864-19.088-7.848-7.244-.016-14.028 2.772-19.108 7.848z" data-original="#000000" class="active-path" data-old_color="#000000" fill="#FFF"/></svg>