<svg xmlns="http://www.w3.org/2000/svg" width="23.713" height="14.037"><defs><clipPath id="a"><path fill="none" d="M0 0h23.713v14.037H0z"/></clipPath></defs><g clip-path="url(#a)"><path data-name="Path 120" d="M23.308 5.963c-.255-.3-.526-.581-.785-.837a20.3 20.3 0 00-4.907-3.645A13.289 13.289 0 0013.868.168a11.254 11.254 0 00-2-.167 11.126 11.126 0 00-2.035.167 13.584 13.584 0 00-3.747 1.313 20.228 20.228 0 00-4.907 3.645c-.3.294-.556.565-.785.837a1.567 1.567 0 000 2.086 17.775 17.775 0 002.524 2.37 16.315 16.315 0 006.594 3.388 11.25 11.25 0 002.357.231 11.056 11.056 0 002.318-.231 16.184 16.184 0 006.619-3.388 17.552 17.552 0 002.5-2.37 1.545 1.545 0 00.002-2.086zm-1.082 1.159a15.382 15.382 0 01-2.318 2.189 14.613 14.613 0 01-6.014 3.092 9.922 9.922 0 01-2.022.206h-.039a9.614 9.614 0 01-2-.206 14.813 14.813 0 01-6.04-3.092 14.951 14.951 0 01-2.292-2.189q-.135-.1 0-.232a3.842 3.842 0 01.335-.387c.164-.171.284-.3.348-.373a18.226 18.226 0 014.559-3.348 12.241 12.241 0 013.348-1.2 10.555 10.555 0 011.777-.154 10.176 10.176 0 011.764.154 12.283 12.283 0 013.349 1.2 17.692 17.692 0 014.533 3.348q.5.5.708.76a.158.158 0 01.004.231z" fill="#b7babe"/><g data-name="Ellipse 82" transform="translate(5.797 .87)" fill="none" stroke="#b7babe"><circle cx="6.074" cy="6.074" r="6.074" stroke="none"/><circle cx="6.074" cy="6.074" r="5.574"/></g></g></svg>