<svg xmlns="http://www.w3.org/2000/svg" xmlns:xlink="http://www.w3.org/1999/xlink" width="1169.507" height="861.742"><defs><linearGradient id="b" x1=".147" y1="1.029" x2=".801" y2=".143" gradientUnits="objectBoundingBox"><stop offset="0" stop-color="#3cb64a"/><stop offset="1" stop-color="#8cc63f"/></linearGradient><linearGradient id="a" x1=".5" x2=".5" y2="1" gradientUnits="objectBoundingBox"><stop offset="0" stop-color="#ffe6e6"/><stop offset="1" stop-color="#f03c3b"/></linearGradient><linearGradient id="c" x1=".5" x2=".5" y2="1" gradientUnits="objectBoundingBox"><stop offset="0" stop-color="#201e1e"/><stop offset="1" stop-color="#6a6868"/></linearGradient><linearGradient id="d" x1="1" y1=".5" x2="0" y2=".5" xlink:href="#a"/><clipPath id="e"><path data-name="Path 2614" d="M238.014 501.973l387.918 22.353v-406.7l-496.424 22.659z" transform="translate(-129.508 -117.623)" fill="none"/></clipPath></defs><g data-name="Group 97721"><path data-name="Path 34596" d="M2725.624-4777.609c107.637-102.747 133.352-312.53 33.654-458.39-83.1-121.573-236.157-246.625-429.033-283.079s-361.85-36.415-434.928 11.745c-59.8 39.413-32 94.3-13.25 140.94 25.036 62.267 28.726 111.7-74.267 202.156-117.571 103.255-149.395 142.015-155.288 241.858-4.793 81.2 63 190.43 151.962 206.083 123.845 21.789 169.814-35.766 290.976-74.564 97.2-31.126 164.611-16.571 252.735 43.082s219.48 120.956 377.439-29.831z" transform="translate(-1652.272 5545.092)" opacity=".19" fill="url(#b)"/><path data-name="Path 34597" d="M2464.044-4964.647c81.406-77.707 100.854-236.365 25.453-346.679-62.846-91.945-178.6-186.522-324.476-214.092s-273.666-27.541-328.935 8.882c-45.229 29.808-24.2 71.319-10.021 106.592 18.935 47.092 21.725 84.479-56.168 152.89-88.918 78.091-112.986 107.406-117.444 182.917-3.625 61.413 47.648 144.021 114.928 155.859 93.664 16.479 128.43-27.049 220.064-56.393 73.51-23.541 124.494-12.532 191.142 32.583s165.994 91.481 285.457-22.559z" transform="translate(-1509.766 5650.097)" opacity=".87" fill="url(#b)"/><g data-name="Group 9332"><g data-name="Group 97720"><path data-name="Path 2499" d="M691.071 712.205c29.213 10.642-2.512 26.834-52.43 34.93s-109.534-33.062 48.293-36.264" fill="#eaeff2"/><path data-name="Path 2500" d="M394.847 723.124c-85.106-3.277-79.4-41.037-27.749-34.461s101.087 37.285 27.749 34.461z" fill="#eaeff2"/><g data-name="Group 97697"><path data-name="Path 2504" d="M38.849 341.277s-15.482-46.8 7.163-73.66c8.22 16.945 8.885 49.024 8.885 49.024s1.046-45.575 33.421-61.289c5.564-.571.591 39.286-10.221 64.621 14.389-11.351 37.369-14.1 37.369-14.1s-4.366 30.605-21.139 37.246c21.471 5.345 27.915 16.4 27.915 16.4s-20.926 14.5-38.177 9.118c-20.365-9.592-45.216-27.36-45.216-27.36z" transform="translate(783.307 289.538)" fill="url(#a)"/></g><g data-name="Group 97700"><path data-name="Path 2523" d="M423.554 365.638s15.043-20.807 6.54-36.754c-6.868 7.2-11.772 22.73-11.772 22.73s5.886-22.311-9.483-34.064c-2.943-.984-5.886 19.044-3.6 32.745-6.214-7.349-18.313-11.6-18.313-11.6s-1.961 15.447 6.214 20.807c-12.425-.121-17.494 4.443-17.494 4.443s9.319 9.709 19.455 9.278c12.431-2.088 28.453-7.585 28.453-7.585z" transform="translate(-209.291 342.201)" fill="url(#a)"/></g><g data-name="Group 97701"><path data-name="Path 2524" d="M433.859 629.338l427.307 24.623V336.727l-427.31-24.623z" fill="#eee"/><path data-name="Path 2525" d="M119.777 483.5l427.31 24.623v-317.23l-427.31-24.623z" transform="translate(305.208 145.324)" fill="url(#c)"/><path data-name="Path 2526" d="M129.508 435.151L517.427 457.5V205.231l-387.919-22.353z" transform="translate(315.173 162.331)" fill="url(#d)"/><path data-name="Path 2527" d="M119.942 392.778l428.292 24.652L766.3 347.895l-428.29-24.652z" transform="translate(85.659 306.067)" fill="url(#c)"/><path data-name="Path 2528" d="M376.193 700.291l131.594 7.574 44.795-14.284-131.594-7.573z" fill="#eee"/><path data-name="Path 2529" d="M723.384 668.811l26.319 1.515 19.882-6.34-26.319-1.515z" fill="#eee"/><path data-name="Path 2530" d="M691.817 666.994l26.319 1.515 19.882-6.34-26.319-1.515z" fill="#eee"/><path data-name="Path 2531" d="M660.25 665.177l26.319 1.515 19.882-6.34-26.319-1.515z" fill="#eee"/><path data-name="Path 2532" d="M628.683 663.359l26.319 1.515 19.882-6.34-26.319-1.515z" fill="#eee"/><path data-name="Path 2533" d="M597.116 661.543l26.319 1.515 19.882-6.34-26.319-1.515z" fill="#eee"/><path data-name="Path 2534" d="M565.549 659.726l26.319 1.515 19.882-6.34-26.323-1.515z" fill="#eee"/><path data-name="Path 2535" d="M533.983 657.909l26.319 1.515 19.882-6.34-26.32-1.515z" fill="#eee"/><path data-name="Path 2536" d="M502.415 656.092l26.319 1.515 19.882-6.34-26.316-1.515z" fill="#eee"/><path data-name="Path 2537" d="M470.848 654.275l26.319 1.515 19.882-6.34-26.319-1.515z" fill="#eee"/><path data-name="Path 2538" d="M439.281 652.458l26.319 1.515 19.882-6.34-26.319-1.515z" fill="#eee"/><path data-name="Path 2539" d="M407.711 650.642l26.319 1.515 19.882-6.34-26.319-1.515z" fill="#eee"/><path data-name="Path 2540" d="M699.537 676.414l26.319 1.515 19.882-6.34-26.319-1.515z" fill="#eee"/><path data-name="Path 2541" d="M667.97 674.598l26.319 1.515 19.882-6.341-26.321-1.514z" fill="#eee"/><path data-name="Path 2542" d="M636.403 672.781l26.319 1.515 19.882-6.34-26.317-1.515z" fill="#eee"/><path data-name="Path 2543" d="M604.836 670.963l26.319 1.515 19.882-6.34-26.319-1.515z" fill="#eee"/><path data-name="Path 2544" d="M573.269 669.147l26.319 1.515 19.882-6.34-26.319-1.515z" fill="#eee"/><path data-name="Path 2545" d="M541.698 667.33l26.319 1.515 19.882-6.34-26.314-1.51z" fill="#eee"/><path data-name="Path 2546" d="M510.135 665.513l26.319 1.515 19.882-6.34-26.318-1.512z" fill="#eee"/><path data-name="Path 2547" d="M478.572 663.696l26.319 1.515 19.882-6.34-26.322-1.515z" fill="#eee"/><path data-name="Path 2548" d="M447.002 661.879l26.319 1.515 19.882-6.34-26.319-1.517z" fill="#eee"/><path data-name="Path 2549" d="M415.435 660.062l26.319 1.515 19.882-6.34-26.319-1.519z" fill="#eee"/><path data-name="Path 2550" d="M383.868 658.245l26.319 1.515 19.882-6.34-26.319-1.515z" fill="#eee"/><path data-name="Path 2551" d="M675.69 684.018l26.319 1.52 19.882-6.34-26.319-1.515z" fill="#eee"/><path data-name="Path 2552" d="M644.122 682.202l26.32 1.517 19.88-6.342-26.319-1.515z" fill="#eee"/><path data-name="Path 2553" d="M612.559 680.385l26.319 1.515 19.882-6.34-26.319-1.515z" fill="#eee"/><path data-name="Path 2554" d="M580.99 678.568l26.319 1.515 19.882-6.34-26.319-1.515z" fill="#eee"/><path data-name="Path 2555" d="M549.423 676.75l26.319 1.515 19.882-6.34-26.319-1.515z" fill="#eee"/><path data-name="Path 2556" d="M517.855 674.934l26.319 1.515 19.882-6.34-26.319-1.515z" fill="#eee"/><path data-name="Path 2557" d="M486.288 673.117l26.319 1.515 19.882-6.34-26.319-1.515z" fill="#eee"/><path data-name="Path 2558" d="M454.722 671.304l26.319 1.515 19.882-6.34-26.319-1.515z" fill="#eee"/><path data-name="Path 2559" d="M423.155 669.484l26.319 1.515 19.882-6.34-26.319-1.515z" fill="#eee"/><path data-name="Path 2560" d="M391.588 667.665l26.319 1.515 19.882-6.34-26.319-1.515z" fill="#eee"/><path data-name="Path 2561" d="M360.021 665.846l26.319 1.515 19.882-6.34-26.319-1.515z" fill="#eee"/><path data-name="Path 2562" d="M651.843 691.622l26.319 1.515 19.882-6.34-26.319-1.512z" fill="#eee"/><path data-name="Path 2563" d="M620.276 689.805l26.319 1.515 19.882-6.34-26.318-1.514z" fill="#eee"/><path data-name="Path 2564" d="M588.71 687.989l26.319 1.515 19.882-6.34-26.319-1.517z" fill="#eee"/><path data-name="Path 2565" d="M557.143 686.172l26.319 1.515 19.882-6.34-26.319-1.519z" fill="#eee"/><path data-name="Path 2566" d="M525.576 684.354l26.319 1.515 19.882-6.34-26.319-1.515z" fill="#eee"/><path data-name="Path 2567" d="M494.009 682.538l26.319 1.515 19.882-6.34-26.319-1.515z" fill="#eee"/><path data-name="Path 2568" d="M462.442 680.721l26.319 1.515 19.882-6.34-26.319-1.515z" fill="#eee"/><path data-name="Path 2569" d="M430.876 678.904l26.319 1.515 19.882-6.34-26.319-1.515z" fill="#eee"/><path data-name="Path 2570" d="M399.309 677.087l26.319 1.515 19.882-6.34-26.319-1.515z" fill="#eee"/><path data-name="Path 2571" d="M367.742 675.27l26.319 1.515 19.882-6.34-26.319-1.515z" fill="#eee"/><path data-name="Path 2572" d="M336.174 673.453l26.319 1.515 19.882-6.34-26.319-1.515z" fill="#eee"/><path data-name="Path 2573" d="M336.247 335.423v18.852l-216.305 75.8v-25.016z" transform="translate(515.715 318.539)" fill="url(#c)"/><path data-name="Path 2574" d="M783.855 683.764v6.981l-80.092 28.067v-9.263z" fill="#eee"/><path data-name="Path 2575" d="M656.867 407.367l-430.056-24.753V357.6l430.056 24.753z" transform="translate(-21.21 341.247)" fill="url(#c)"/></g><path data-name="Path 2576" d="M628.478 263.38a10.162 10.162 0 1010.163-10.161 10.163 10.163 0 00-10.163 10.161z" fill="#9fe0c2"/><g data-name="Group 97713"><g data-name="Group 97712" clip-path="url(#e)" transform="translate(336.175 213.131)"><g data-name="Group 97711"><g data-name="Group 97710"><g data-name="Group 97702" fill="none" stroke="#004c87" stroke-miterlimit="10" stroke-width="2.835"><path data-name="Line 58" d="M445.143 432.897l-66.414-66.266"/><path data-name="Line 59" d="M312.315 432.897l66.414-66.266"/></g><path data-name="Line 60" fill="none" stroke="#004c87" stroke-miterlimit="10" stroke-width="2.835" d="M378.729 432.897V356.91"/><path data-name="Rectangle 11507" fill="#004c87" d="M374.5 330.821h8.46v40.04h-8.46z"/><path data-name="Rectangle 11508" fill="#85bca2" d="M370.344 362.402h16.771v8.459h-16.771z"/><path data-name="Rectangle 11509" fill="#fff" d="M283.004 53.068h191.451v277.754H283.004z"/><path data-name="Rectangle 11510" fill="#85bca2" d="M279.442 330.821h198.575v7.124H279.442z"/><path data-name="Rectangle 11511" fill="#85bca2" d="M279.442 44.163h198.575v8.905H279.442z"/><g data-name="Group 97707"><g data-name="Group 97704"><g data-name="Group 97703" fill="#bbbdbf"><path data-name="Rectangle 11512" d="M385.715 73.844h74.143v15.538h-74.143z"/><path data-name="Rectangle 11513" d="M436.071 96.288h23.788v4.985h-23.788z"/><path data-name="Rectangle 11514" d="M421.191 105.705h38.667v4.985h-38.667z"/><path data-name="Rectangle 11515" d="M436.071 115.121h23.788v4.985h-23.788z"/><path data-name="Rectangle 11516" d="M421.191 124.538h38.667v4.985h-38.667z"/></g></g><g data-name="Group 97706"><g data-name="Group 97705" fill="#bbbdbf"><path data-name="Rectangle 11517" d="M297.6 73.844h74.144v15.538H297.6z"/><path data-name="Rectangle 11518" d="M347.956 96.288h23.788v4.985h-23.788z"/><path data-name="Rectangle 11519" d="M333.076 105.705h38.667v4.985h-38.667z"/><path data-name="Rectangle 11520" d="M347.956 115.121h23.788v4.985h-23.788z"/><path data-name="Rectangle 11521" d="M333.076 124.538h38.667v4.985h-38.667z"/></g></g></g><g data-name="Group 97709"><g data-name="Group 97708" fill="#bbbdbf"><path data-name="Rectangle 11522" d="M307.041 269.289h146.58v10.686h-146.58z"/><path data-name="Rectangle 11523" d="M406.593 284.724h47.028v3.428h-47.028z"/><path data-name="Rectangle 11524" d="M377.177 291.199h76.445v3.428h-76.445z"/><path data-name="Rectangle 11525" d="M406.593 297.675h47.028v3.428h-47.028z"/><path data-name="Rectangle 11526" d="M377.177 304.151h76.445v3.428h-76.445z"/></g><path data-name="Rectangle 11527" fill="#85bca2" d="M431.409 175.397h22.145v73.237h-22.145z"/><path data-name="Rectangle 11528" fill="#ff7536" d="M390.316 195.644h22.145v52.99h-22.145z"/><path data-name="Rectangle 11529" fill="#004c87" d="M349.222 214.728h22.145v33.906h-22.145z"/><path data-name="Rectangle 11530" fill="#ffe14a" d="M308.129 175.397h22.145v73.237h-22.145z"/></g><path data-name="Path 2577" d="M453.555 156.042H420.34l-60.044 39.6-43-45.763" fill="none" stroke="#401a4c" stroke-miterlimit="10" stroke-width=".567"/></g><path data-name="Path 2578" d="M158.805 75.381s-10.488 14.229-2.736 28.579c14.034-2.345 12.542-26.62 2.736-28.579z" fill="#263238"/><path data-name="Path 2579" d="M78.87 137.154c-.472-.607-8.543-8.26-11.365-4.789-1.407 1.731 5.7 6.594 5.7 6.594s-11.233-4.981-11.209-2.453c-2.947 8.736-5.133 19.139 7.088 18.265l8.062 2.469s6.592-13.83 1.724-20.086z" fill="#f8cba3"/><path data-name="Path 2580" d="M127.783 164.064l-26.256 31.3-22.773-46.877-9.825 2.374s8.912 64.56 28.777 68.954 60.978-55.128 60.978-55.128z" fill="#f8cba3"/><path data-name="Path 2581" d="M310.113 222.015c-.449-2.726-4.2-2.886-4.131-5.461l-58.029-4.955-13.395-21.45c-9.788 5.732-15.413 4.742-22.851 13.692 11.4 11.286 20.493 24.08 24.768 27.053 7.829 5.445 53.151-1.453 74.3-5.048a289.013 289.013 0 01-.662-3.831z" fill="#f8cba3"/><path data-name="Path 2582" d="M145.35 497.092a15.126 15.126 0 01-10.776.711c-4.307-2.014-2.882-8.353-6.685-10.173l-1.131 2.678c-2.368 5.59-34.06 16.143-34.06 16.143l.184 7.8 52.881-.856z" fill="#4b4be3"/><path data-name="Path 2583" d="M134.573 497.803a15.126 15.126 0 0010.776-.711l-.51-19.35-11.755-2.388-5.2 12.276c3.807 1.82 2.382 8.159 6.689 10.173z" fill="#f8cba3"/><path data-name="Path 2584" d="M185.18 274.619l-21.654 102.659-10.515 109.455-29.666-3.372.4-102.369 18.154-122.5 40.113-.943z" fill="#263238"/><path data-name="Path 2585" d="M220.22 492.715a15.128 15.128 0 01-10.452 2.712c-4.609-1.174-4.394-7.669-8.469-8.744l-.613 2.842c-1.279 5.934-30.441 22.222-30.441 22.222l1.637 7.635 51.791-10.723z" fill="#4b4be3"/><path data-name="Path 2586" d="M209.768 495.427a15.128 15.128 0 0010.452-2.712l-4.115-18.912-12-.152-2.809 13.033c4.077 1.074 3.863 7.569 8.472 8.743z" fill="#f8cba3"/><path data-name="Path 2587" d="M214.376 319.103l1.314 52.515 10.121 109.489-29.773 2.23-18.738-100.64-11.7-122.167 37.273-15.063 4.669 20.054a265.651 265.651 0 016.834 53.582z" fill="#263238"/><path data-name="Path 2588" d="M297.183 223.541s-6.869-10.869 3.931-14.729l10.752-4.174a2.694 2.694 0 011.012 1.9c-.032 1.425-1.929 2.21-4.576 4.056a36.582 36.582 0 00-4.368 3.585 137.652 137.652 0 0117.048-5.171c.569-.119 8.483-1.305 5.756 1.55a3.5 3.5 0 01-1.168.71q-7.116 3.142-14.223 6.3 17.5-5.592 18.587-3.212c.579 1.271-1.081 2.066-1.955 2.4l-15.051 5.712c1.668-.326 13.1-3.093 13.838-.773.559 1.745-3.672 2.154-4.609 2.338l-9.312 1.828c2.23-.109 4.451-.3 6.687-.275a14.181 14.181 0 013.765.34c1.441.425 1.761 1.3 0 1.858a41.95 41.95 0 01-13.083 1.809c-3.315-.032-14.678-2.255-19.546-3.3" fill="#f8cba3"/><path data-name="Path 2589" d="M146.393 140.073c12.543-11.173 34.143-6.6 42.415-4.269 13.407 3.787 20.987 6.736 24.321 10.65-.729 10.187-.882 26.43-.532 37.588.629 20.054 4.765 79.256-2.915 80.979-24.59 22.339-52.966 9.94-65.6 4.993a20.585 20.585 0 01-2.67-2.692c-5.473-6.665-5.214-15.115-4.89-22.386.834-18.706 1.573-24.262 1.714-32.06.219-12.065-1.289-12.964-1.611-24.387-.591-21.118-1.089-38.745 9.768-48.416z" fill="#fff"/><path data-name="Path 2590" d="M182.089 177.806s15.174-41.755 31.04-31.352c11.428 7.495 27.589 47.194 27.589 47.194-11.247 1.473-21.363 12.365-31.7 17.716-8.579-20.827-26.929-33.558-26.929-33.558z" fill="#fff"/><path data-name="Line 61" fill="none" stroke="#401a4c" stroke-miterlimit="10" stroke-width=".567" d="M247.953 211.599l-8.735-.48"/><path data-name="Line 62" fill="none" stroke="#401a4c" stroke-miterlimit="10" stroke-width=".567" d="M170.565 312.379l2.725 28.451"/><path data-name="Path 2591" d="M173.556 310.387s-11.241-1.609-19.289-6.515" fill="none" stroke="#401a4c" stroke-miterlimit="10" stroke-width=".567"/><path data-name="Path 2592" d="M155.307 140.886c-1.789.079-3.746-2.753-6.991-1.512-8.916 3.408-13.369 13.968-21.167 23.993a140.191 140.191 0 01-14.7 16.1l20.8 29.067 26.753-27.646z" fill="#fff"/><path data-name="Path 2593" d="M139.14 150.073s-3.708 10.057-1.3 61.455" fill="none" stroke="#401a4c" stroke-miterlimit="10" stroke-width=".567"/><path data-name="Path 2594" d="M161.62 137.285l2.048-8.29c-11.9-2.811-15.251-11.731-8.513-37.677 8.2-31.565 42.727-17.283 44.423-5.445s-11.988 38.212-11.988 38.212l1.127 14.166-21.349 8.034z" fill="#f8cba3"/><path data-name="Path 2595" d="M180.035 123.116s-2.852 7.7-16.368 5.882" fill="none" stroke="#401a4c" stroke-miterlimit="10" stroke-width=".567"/><path data-name="Path 2596" d="M65.176 136.114c-14.8-4.708-34.714-1.87-5.426 3.53-23.632-2.03-23.936 6.491-.3 4.862-20.708.81-21.614 8.4.83 4.633-19.933 3.508-11.057 6.87 2.858 3.212" fill="#f8cba3"/><path data-name="Path 2597" d="M73.209 138.96s-7.2 1.646-4.076 8.385" fill="none" stroke="#401a4c" stroke-miterlimit="10" stroke-width=".567"/><path data-name="Path 2598" d="M61.067 137.087s-3.627 8.426.508 14.5" fill="none" stroke="#401a4c" stroke-miterlimit="10" stroke-width=".567"/><path data-name="Line 63" fill="none" stroke="#401a4c" stroke-miterlimit="10" stroke-width=".567" d="M98.304 188.731l7.194 14.241"/><path data-name="Path 2599" d="M156.726 75.249s-3.263 9.594 9.4 14.972c.194-2.036.188-2.981.188-2.981s12.776 8.558 15.508 7.693l-1.465-4.283s6.044 4.167 4.981 5.993-5.238 8.1-3.51 13.142 2.354 6.653 2.354 6.653l1.787.113s2.087-11.788 4.566-12.326c5.623-1.22 1.68 11.638-2.941 19.856 25-9.628 15.652-31.35 13.771-36.515 2.617-6.459-6.673-19.141-24.99-23.713s-23.414 11.158-23.414 11.158z" fill="#263238"/><path data-name="Path 2600" d="M167.535 71.513s-.553 12.929 9.009 15.427" fill="none" stroke="#401a4c" stroke-miterlimit="10" stroke-width=".567"/><path data-name="Path 2601" d="M172.507 71.829s.35 12.67 13.089 15.684" fill="none" stroke="#401a4c" stroke-miterlimit="10" stroke-width=".567"/><path data-name="Path 2602" d="M161.043 71.102s-2.067 10 2.773 12.51" fill="none" stroke="#401a4c" stroke-miterlimit="10" stroke-width=".567"/><path data-name="Path 2603" d="M180.972 75.867s11.442 8.564 10.5 18.461" fill="none" stroke="#401a4c" stroke-miterlimit="10" stroke-width=".567"/><path data-name="Path 2604" d="M197.283 82.261s3.536 10.094-1.014 16.02" fill="none" stroke="#401a4c" stroke-miterlimit="10" stroke-width=".567"/><path data-name="Path 2605" d="M199.109 98.461a12.437 12.437 0 01-.785 12.391" fill="none" stroke="#401a4c" stroke-miterlimit="10" stroke-width=".567"/><path data-name="Path 2606" d="M194.711 137.538c1.05 13.008-22.438 16.868-22.438 16.868l-4.9-8.124-7.841 5.082s-7.343-9.584-3.821-15.279" fill="none" stroke="#401a4c" stroke-miterlimit="10" stroke-width=".567"/><path data-name="Path 2607" d="M170.205 152.04l-3.084 4.871-4.973-.315-.175-6.817 5.4-3.5z" fill="#401a4c"/><path data-name="Path 2608" d="M167.121 156.91l2.544 92.646-7.872 8.46-6.185-7.694 6.539-93.727z" fill="#401a4c"/><path data-name="Path 2609" d="M239.074 189.754s-16.842 4.813-27.367 14.087" fill="none" stroke="#401a4c" stroke-miterlimit="10" stroke-width=".567"/><path data-name="Path 2610" d="M211.31 210.087l-7.023-16.073c-5.347-9.794-8.029-27.638 8.843-47.56" fill="none" stroke="#401a4c" stroke-miterlimit="10" stroke-width=".567"/><path data-name="Path 2611" d="M136.339 205.341s-13.895-24.286-20.7-28.978" fill="none" stroke="#401a4c" stroke-miterlimit="10" stroke-width=".567"/><path data-name="Path 2612" d="M303.933 214.178s3.643 5.188 0 7.392" fill="none" stroke="#401a4c" stroke-miterlimit="10" stroke-width=".567"/><path data-name="Path 2613" d="M310.772 215.904s4 6.295 2.421 11.33" fill="none" stroke="#401a4c" stroke-miterlimit="10" stroke-width=".567"/></g></g></g><g data-name="Group 97719" transform="translate(951.279 614.948)" fill="url(#a)"><path data-name="Path 2692" d="M27.346 142.27s-44.99-46.542-19.558-96.138C28.328 61.089 43 100.212 43 100.212S25.393 43.185 71.365.299c8.8-4.742 17.6 48.074 10.758 87.2 18.585-24.452 54.774-44.52 54.774-44.52s5.87 40.954-18.583 61.322c37.167-8.977 52.327 0 52.327 0s-27.875 33.083-58.2 38.95c-37.164 2.932-85.095-.981-85.095-.981z"/><path data-name="Path 2693" d="M6.351 49.111s5.837 66.995 34.447 87.535" stroke="#401a4c" stroke-miterlimit="10" stroke-width=".567"/><path data-name="Path 2694" d="M71.365.298s-1.957 95.268-12.96 125.345" stroke="#401a4c" stroke-miterlimit="10" stroke-width=".567"/><path data-name="Path 2695" d="M136.896 42.977s-28.561 64.776-58.686 82.667" stroke="#401a4c" stroke-miterlimit="10" stroke-width=".567"/><path data-name="Path 2696" d="M170.641 104.298s-50.6 24.685-67.489 32.348" stroke="#401a4c" stroke-miterlimit="10" stroke-width=".567"/><path data-name="Path 2697" d="M129.62 90.124s-20.6 31.852-51.41 46.522" stroke="#401a4c" stroke-miterlimit="10" stroke-width=".567"/><path data-name="Path 2698" d="M40.798 94.822s9.525 25.974 10.27 37.424" stroke="#401a4c" stroke-miterlimit="10" stroke-width=".567"/><path data-name="Path 2699" d="M82.123 87.497s-6.357 24.942-17.239 38.147" stroke="#401a4c" stroke-miterlimit="10" stroke-width=".567"/></g></g></g></g></svg>